<svg width="120" height="120" viewBox="0 0 120 120" fill="none" xmlns="http://www.w3.org/2000/svg">
  <!-- 背景圆形 -->
  <circle cx="60" cy="60" r="60" fill="url(#gradient1)"/>
  
  <!-- 头像轮廓 -->
  <circle cx="60" cy="60" r="50" fill="white" fill-opacity="0.95"/>
  
  <!-- 头部 -->
  <circle cx="60" cy="45" r="18" fill="url(#gradient2)"/>
  
  <!-- 身体 -->
  <path d="M60 63C60 63 45 75 45 85C45 90 50 95 60 95C70 95 75 90 75 85C75 75 60 63 60 63Z" fill="url(#gradient2)"/>
  
  <!-- 眼睛 -->
  <circle cx="55" cy="42" r="3" fill="white"/>
  <circle cx="65" cy="42" r="3" fill="white"/>
  <circle cx="55" cy="42" r="1.5" fill="#1F2937"/>
  <circle cx="65" cy="42" r="1.5" fill="#1F2937"/>
  
  <!-- 嘴巴 -->
  <path d="M55 50C55 50 57.5 53 60 53C62.5 53 65 50 65 50" stroke="#1F2937" stroke-width="2" stroke-linecap="round" fill="none"/>
  
  <!-- 装饰性元素 - 代码符号 -->
  <path d="M25 25L30 25L30 30L25 30Z" fill="white" fill-opacity="0.7"/>
  <path d="M90 25L95 25L95 30L90 30Z" fill="white" fill-opacity="0.7"/>
  <path d="M25 90L30 90L30 95L25 95Z" fill="white" fill-opacity="0.7"/>
  <path d="M90 90L95 90L95 95L90 95Z" fill="white" fill-opacity="0.7"/>
  
  <!-- 装饰性元素 - 星星 -->
  <path d="M15 15L17 21L23 21L18 25L20 31L15 27L10 31L12 25L7 21L13 21L15 15Z" fill="white" fill-opacity="0.6"/>
  <path d="M105 15L107 21L113 21L108 25L110 31L105 27L100 31L102 25L97 21L103 21L105 15Z" fill="white" fill-opacity="0.6"/>
  
  <!-- 渐变定义 -->
  <defs>
    <linearGradient id="gradient1" x1="0%" y1="0%" x2="100%" y2="100%">
      <stop offset="0%" style="stop-color:#3B82F6;stop-opacity:1" />
      <stop offset="50%" style="stop-color:#6366F1;stop-opacity:1" />
      <stop offset="100%" style="stop-color:#8B5CF6;stop-opacity:1" />
    </linearGradient>
    <linearGradient id="gradient2" x1="0%" y1="0%" x2="100%" y2="100%">
      <stop offset="0%" style="stop-color:#F3F4F6;stop-opacity:1" />
      <stop offset="100%" style="stop-color:#E5E7EB;stop-opacity:1" />
    </linearGradient>
  </defs>
</svg>
