<svg width="32" height="32" viewBox="0 0 32 32" fill="none" xmlns="http://www.w3.org/2000/svg">
  <!-- 背景圆形 -->
  <circle cx="16" cy="16" r="16" fill="url(#gradient1)"/>
  
  <!-- 博客图标 - 书本 -->
  <path d="M8 10C8 8.89543 8.89543 8 10 8H22C23.1046 8 24 8.89543 24 10V24C24 25.1046 23.1046 26 22 26H10C8.89543 26 8 25.1046 8 24V10Z" fill="white" fill-opacity="0.9"/>
  
  <!-- 书本内页 -->
  <path d="M10 10H22V12H10V10Z" fill="url(#gradient2)"/>
  <path d="M10 14H22V16H10V14Z" fill="url(#gradient2)"/>
  <path d="M10 18H22V20H10V18Z" fill="url(#gradient2)"/>
  
  <!-- 装饰性元素 - 代码符号 -->
  <path d="M12 22H14V24H12V22Z" fill="url(#gradient2)"/>
  <path d="M16 22H18V24H16V22Z" fill="url(#gradient2)"/>
  <path d="M20 22H22V24H20V22Z" fill="url(#gradient2)"/>
  
  <!-- 渐变定义 -->
  <defs>
    <linearGradient id="gradient1" x1="0%" y1="0%" x2="100%" y2="100%">
      <stop offset="0%" style="stop-color:#3B82F6;stop-opacity:1" />
      <stop offset="100%" style="stop-color:#8B5CF6;stop-opacity:1" />
    </linearGradient>
    <linearGradient id="gradient2" x1="0%" y1="0%" x2="100%" y2="0%">
      <stop offset="0%" style="stop-color:#3B82F6;stop-opacity:0.8" />
      <stop offset="100%" style="stop-color:#8B5CF6;stop-opacity:0.8" />
    </linearGradient>
  </defs>
</svg>
