<svg width="64" height="64" viewBox="0 0 64 64" fill="none" xmlns="http://www.w3.org/2000/svg">
  <!-- 背景圆形 -->
  <circle cx="32" cy="32" r="32" fill="url(#gradient1)"/>
  
  <!-- 博客图标 - 书本 -->
  <path d="M16 20C16 17.7909 17.7909 16 20 16H44C46.2091 16 48 17.7909 48 20V48C48 50.2091 46.2091 52 44 52H20C17.7909 52 16 50.2091 16 48V20Z" fill="white" fill-opacity="0.95"/>
  
  <!-- 书本内页 -->
  <path d="M20 20H44V24H20V20Z" fill="url(#gradient2)"/>
  <path d="M20 28H44V32H20V28Z" fill="url(#gradient2)"/>
  <path d="M20 36H44V40H20V36Z" fill="url(#gradient2)"/>
  
  <!-- 装饰性元素 - 代码符号 -->
  <path d="M24 44H28V48H24V44Z" fill="url(#gradient2)"/>
  <path d="M32 44H36V48H32V44Z" fill="url(#gradient2)"/>
  <path d="M40 44H44V48H40V44Z" fill="url(#gradient2)"/>
  
  <!-- 装饰性元素 - 星星 -->
  <path d="M28 12L30 18L36 18L31 22L33 28L28 24L23 28L25 22L20 18L26 18L28 12Z" fill="white" fill-opacity="0.8"/>
  
  <!-- 渐变定义 -->
  <defs>
    <linearGradient id="gradient1" x1="0%" y1="0%" x2="100%" y2="100%">
      <stop offset="0%" style="stop-color:#3B82F6;stop-opacity:1" />
      <stop offset="50%" style="stop-color:#6366F1;stop-opacity:1" />
      <stop offset="100%" style="stop-color:#8B5CF6;stop-opacity:1" />
    </linearGradient>
    <linearGradient id="gradient2" x1="0%" y1="0%" x2="100%" y2="0%">
      <stop offset="0%" style="stop-color:#3B82F6;stop-opacity:0.9" />
      <stop offset="100%" style="stop-color:#8B5CF6;stop-opacity:0.9" />
    </linearGradient>
  </defs>
</svg>
